<svg width="20" height="14" viewBox="0 0 20 14" fill="none" xmlns="http://www.w3.org/2000/svg">
<path d="M8.00018 5.99974H5.10118L5.10218 5.99074C5.23276 5.35138 5.48831 4.74409 5.85418 4.20374C6.39864 3.40156 7.16233 2.7729 8.05418 2.39274C8.35618 2.26474 8.67118 2.16674 8.99218 2.10174C9.65808 1.96674 10.3443 1.96674 11.0102 2.10174C11.9672 2.29783 12.8453 2.77116 13.5352 3.46274L14.9512 2.05074C14.313 1.41238 13.5579 0.902783 12.7272 0.549742C12.3035 0.370371 11.863 0.233695 11.4122 0.141742C10.482 -0.0472473 9.52335 -0.0472473 8.59318 0.141742C8.14203 0.234076 7.70119 0.371085 7.27718 0.550742C6.02771 1.08084 4.95811 1.96083 4.19718 3.08474C3.68507 3.84259 3.32695 4.69373 3.14318 5.58974C3.11518 5.72474 3.10018 5.86274 3.08018 5.99974H0.000183105L4.00018 9.99974L8.00018 5.99974ZM12.0002 7.99974H14.8992L14.8982 8.00774C14.6369 9.2895 13.8814 10.4168 12.7952 11.1457C12.255 11.5119 11.6477 11.7675 11.0082 11.8977C10.3426 12.0327 9.65674 12.0327 8.99118 11.8977C8.35182 11.7672 7.74453 11.5116 7.20418 11.1457C6.9388 10.9662 6.69103 10.762 6.46418 10.5357L5.05018 11.9497C5.68869 12.5879 6.44411 13.0972 7.27518 13.4497C7.69918 13.6297 8.14218 13.7667 8.59018 13.8577C9.52 14.0468 10.4784 14.0468 11.4082 13.8577C13.2007 13.4857 14.7775 12.4292 15.8032 10.9127C16.3148 10.1555 16.6726 9.30501 16.8562 8.40974C16.8832 8.27474 16.8992 8.13674 16.9192 7.99974H20.0002L16.0002 3.99974L12.0002 7.99974Z" fill="white"/>
</svg>
