<svg width="15" height="20" viewBox="0 0 15 20" fill="none" xmlns="http://www.w3.org/2000/svg">
<path d="M14.464 0.114338C14.3022 0.0301971 14.1206 -0.00830269 13.9386 0.00297356C13.7566 0.0142498 13.5811 0.0748711 13.431 0.178337L0.431 9.17834C0.298162 9.27037 0.189607 9.39322 0.11463 9.53638C0.0396528 9.67954 0.000488281 9.83873 0.000488281 10.0003C0.000488281 10.1619 0.0396528 10.3211 0.11463 10.4643C0.189607 10.6075 0.298162 10.7303 0.431 10.8223L13.431 19.8223C13.581 19.9261 13.7566 19.9869 13.9387 19.9981C14.1208 20.0093 14.3025 19.9705 14.4641 19.8858C14.6257 19.8011 14.761 19.6739 14.8555 19.5178C14.95 19.3617 14.9999 19.1828 15 19.0003L15 1.00034C15 0.817801 14.9501 0.638737 14.8556 0.482555C14.7611 0.326374 14.6257 0.199036 14.464 0.114338Z" fill="white"/>
</svg>
